<?xml version="1.0" encoding="utf-8"?>
<!-- Generator: Adobe Illustrator 18.1.1, SVG Export Plug-In . SVG Version: 6.00 Build 0)  -->
<svg version="1.1" id="Layer_2" xmlns="http://www.w3.org/2000/svg" xmlns:xlink="http://www.w3.org/1999/xlink" x="0px" y="0px"
	 viewBox="0 0 186.5 188.5" enable-background="new 0 0 186.5 188.5" xml:space="preserve">
<g id="XMLID_1_">
	<g>
		<path fill="#E7F1F9" d="M186.3,23.5V165c0,13.3-10.3,23.3-24.4,23.2H24.6c-14.1,0-24.4-10-24.4-23.2V23.5
			c0-13.3,10.3-23.3,24.4-23.2l137.2,0C176,0.2,186.3,10.2,186.3,23.5z M165.7,157.4V76.5h-16.3c0.1,0.1,1.8,6,1.8,17.8
			c0,24.2-18.2,57.9-57.7,57.9h-0.3c-32.1,0-58.4-27.3-58.4-57.9c0-12.3,2.9-17.8,3.1-17.8H21.8v80.9c0,5.8,4.7,10.5,10.5,10.5
			h122.9C161,167.9,165.7,163.2,165.7,157.4z M165.7,44.4V32.7c0-6.8-4.4-11.9-11.3-11.9H143c-6.9,0-11.9,5-11.9,11.8v11.7
			c0,6.8,5,12.1,11.9,12.1h11.4C161.3,56.3,165.7,51.1,165.7,44.4z M131.6,94.3c0-18.3-15.1-38.4-38.4-38.4h-1.2
			c-21,0-37.4,17.5-37.4,38.4c0,10.8,4.4,20.5,11.4,27.4c7.1,7,16.8,11.2,27.7,11.2C115,132.9,131.6,115.3,131.6,94.3z"/>
	</g>
	<g>
	</g>
</g>
</svg>
