<?xml version="1.0" encoding="utf-8"?>
<!-- Generator: Adobe Illustrator 18.1.1, SVG Export Plug-In . SVG Version: 6.00 Build 0)  -->
<svg version="1.1" xmlns="http://www.w3.org/2000/svg" xmlns:xlink="http://www.w3.org/1999/xlink" x="0px" y="0px"
	 viewBox="0 0 165.8 166.1" enable-background="new 0 0 165.8 166.1" xml:space="preserve">
<g id="Layer_2">
	<path fill="none" stroke="#FFFFFF" stroke-width="3" stroke-miterlimit="10" d="M83,30c29.6,0,53.4,26.1,52.9,52.2
		c0,29.3-23.7,54.3-53,54.3h-0.5c-29.3,0-53-25.1-53-54.3C28.8,56.1,52.8,30,82.3,30L83,30z"/>
	<path fill="none" stroke="#FFFFFF" stroke-width="3" stroke-miterlimit="10" d="M56.7,76.2c2.3-2.3,3.2-2.5,5.8,0L73,85.7
		c2.3,2.3,3.2,2.5,5.8,0l24.8-28.3c2.3-2.3,3.2-2.5,5.8,0l2,1.9c2.5,2.5,2.3,3.4,0,5.8l-32.2,44.2c-2.5,2.5-3.4,2.3-5.8,0L53.7,84.9
		c-2.3-2.3-2.5-3.2,0-5.8L56.7,76.2z"/>
</g>
<g id="Layer_3">
	<path fill="none" stroke="#FFFFFF" stroke-width="3" stroke-linecap="round" stroke-miterlimit="10" d="M113.1,13.5
		c1.4,2.2,2.9,4.2,6.5,4.2h12.8c3,0,8.4,5.4,8.4,8.5l0.4,8.6c0.3,3.6,1.9,6.2,4.9,8.1l8.8,4.2c2.2,1.2,3.2,2.6,3.9,3.9
		c1.8,3.5,1.2,8-0.3,11.7l-1.7,4.3c-2.2,4.9-2.1,7.2,0.2,10l5,6.8c2.8,3.9,3.2,9,0.3,12.7l-7,6.6c-2.7,2-4.9,5.2-4.8,8.8l1.5,11.5
		c0.1,1.6-0.2,3.4-0.9,4.7c-1.9,3.7-4.7,5.6-8.9,5.9l-3.8,0.4c-5.5,0.2-7.6,2-8.8,5.4l-3.8,9.6c-1.7,4.5-5.6,7.4-10.2,7l-3.9-0.5
		c-1-0.2-2-0.5-2.9-0.9c-4.8-2-8.2-3.1-11.6-0.4l-9.2,8.4c-2.9,2.4-8,2.7-12.3-1.3l-2.3-2c-2.4-3.3-4.9-6.4-8.9-6.6
		c-1.5-0.1-3.1,0.2-4.6,0.8l-8,2.4c-0.2,0.1-0.5,0.2-0.7,0.2c-4,1-8-1.2-9.7-4.9l-3.4-7.2c-0.2-0.7-0.4-1-0.5-1.5
		c-0.2-0.6-0.4-1.3-0.5-1.8c-0.6-3.2-3.6-5.6-6.9-6.2l-8.1-1.9c-1.6-0.2-3.1-0.8-4.4-1.6c-3.4-2.1-5.1-6.3-4.2-10.1l1.6-7.5
		c1-5.4-0.5-7.3-3.6-9.2l-5.7-4.1c-2.8-1.8-4.2-5-4.4-8.2c-0.1-2,0.5-4.1,1.6-5.8l5.3-8.1c2.6-3,3-6.8,1.6-10.1l-3.1-7.8
		c-0.7-1.5-1-3-1-4.6c-0.1-4,2.5-7.7,6.2-9.1l7.2-2.8c5-2.2,5.8-4.5,5.7-8.1l0.3-7.1c0-4.8,3-10,7.4-11l9.9-0.2c0.5,0,1.2,0,1.5,0
		c3.2-0.4,6.5-1.3,8.2-4l4.8-6.8c0.8-1.4,1.9-2.6,3.2-3.5c3.2-2.3,7.7-2.3,11-0.1l6.4,4.3c4.6,2.9,7,2.2,9.9,0l6-3.8
		c3.9-2.8,10.7-2.2,12.8,0.2L113.1,13.5z"/>
</g>
</svg>
