<?xml version="1.0" encoding="utf-8"?>
<!-- Generator: Adobe Illustrator 18.1.1, SVG Export Plug-In . SVG Version: 6.00 Build 0)  -->
<svg version="1.1" id="Layer_2" xmlns="http://www.w3.org/2000/svg" xmlns:xlink="http://www.w3.org/1999/xlink" x="0px" y="0px"
	 viewBox="0.6 222.2 610.9 348.1" enable-background="new 0.6 222.2 610.9 348.1" xml:space="preserve">
<g id="XMLID_1_">
	<g>
		<path id="vkrect" fill="#E7F0F9" d="M278.4,569.8C152.3,559.6,69.1,408,1.2,256.8c-1.9-6.4,0-19.2,15.4-19.2h93.3
			c16.6,0,22.5,21.6,23.7,24.7c22.5,57,51,99.4,74.7,124.8c7.6,8.3,19.7,9.7,26.3-1.9c3.3-6.2,8.8-41.1,5.9-90.9
			c0-25.6-11.9-46.7-37.7-46.7c-0.2-13.1,21.1-25.4,73.6-25.4h19.7c53.2,0,63.1,6.9,63.1,42.7c-2.4,24-1.7,90.9-2.6,98.2
			c4.5,37.7,18,34.6,38,13.8c10-10.4,55.8-81.4,69.1-118.2c1.9-4,5.5-19.9,18.3-19.9l99-2.4c38.2-0.7,34.9,16.6,20.6,45.8
			c-19,38.7-64.5,95.6-71.7,103.9c-34.2,39.9-11.6,51.3,0.5,62.6c28.2,26.8,60.5,59.1,73.6,82.6c12.3,22.1,7.8,36.8-21.8,38.9h-94.4
			c-38.7,0-79-82.3-103-79.7c-19.9,2.1-26.3,32.3-26.1,43.7l-0.5,12.3c-0.2,14.9-9.7,23.7-24,23.7L278.4,569.8z"/>
	</g>
</g>
</svg>
