<?xml version="1.0" encoding="utf-8"?>
<!-- Generator: Adobe Illustrator 18.1.1, SVG Export Plug-In . SVG Version: 6.00 Build 0)  -->
<svg version="1.1" id="Layer_2" xmlns="http://www.w3.org/2000/svg" xmlns:xlink="http://www.w3.org/1999/xlink" x="0px" y="0px"
	 viewBox="0 0 208 170" enable-background="new 0 0 208 170" xml:space="preserve">
<path fill="#E8F3FA" d="M1.2,150.8c70.2,46.6,187.1,7.3,185.4-108.6c3.1,0,19.7-15.4,21.1-21.2c-8.8,4.6-17.7,5.8-23.6,5.8
	c4.6-2.7,16.8-12.6,17.3-22.6c-9.8,6.1-17.7,8.6-25.6,10.1c-3.9-3.6-13.7-13.7-33.3-13.7c-22.4,0-46.7,23.3-40.1,52
	c-42.4-2.3-69-21.4-88.2-44.3c-16.3,29.2,7.3,54.2,12.5,56.9c-2.7,1.3-15.9-2.7-18.1-4.8C8.3,85,26.5,100.5,42.2,102.3
	c-5.2,2-16.5,1.8-18.5,1.1c5.2,16.4,18.6,27.7,38.9,29.3C49.2,144.6,36.6,150.8,1.2,150.8z"/>
</svg>
