<?xml version="1.0" encoding="utf-8"?>
<!-- Generator: Adobe Illustrator 18.1.1, SVG Export Plug-In . SVG Version: 6.00 Build 0)  -->
<svg version="1.1" id="Layer_2" xmlns="http://www.w3.org/2000/svg" xmlns:xlink="http://www.w3.org/1999/xlink" x="0px" y="0px"
	 viewBox="10 278.4 612.1 522.3" enable-background="new 10 278.4 612.1 522.3" xml:space="preserve">
<g>
	<path fill="#FFFFFF" d="M253.3,800.7L19,566.4c-11.8-11.8-12.9-41.9,2.2-58l230.1-228.9c0,0,1-1,2.2-1c11.8,0,35.5,19.3,41.9,35.5
		c2.2,4.3,2.2,7.6,1,8.6L112.5,506.2h499.9c1,0,3.2,2.2,5.4,7.6c3.2,6.4,4.3,17.2,4.3,26.9c0,22.6-7.6,34.3-9.7,34.3H112.5
		l181.7,180.6c0,1-1,7.6-7.6,18.3C274.8,789.9,258.7,800.7,253.3,800.7L253.3,800.7z"/>
</g>
</svg>
