<?xml version="1.0" encoding="utf-8"?>
<!-- Generator: Adobe Illustrator 18.1.1, SVG Export Plug-In . SVG Version: 6.00 Build 0)  -->
<svg version="1.1" id="Layer_2" xmlns="http://www.w3.org/2000/svg" xmlns:xlink="http://www.w3.org/1999/xlink" x="0px" y="0px"
	 viewBox="10 143.5 591.6 505" enable-background="new 10 143.5 591.6 505" xml:space="preserve">
<g>
	<path fill="#FFFFFF" d="M245.2,648.5L18.7,422c-11.4-11.4-12.5-40.5,2.1-56.1l222.4-221.3c0,0,1-1,2.1-1
		c11.4,0,34.3,18.7,40.5,34.3c2.1,4.2,2.1,7.3,1,8.3L109.1,363.8h483.2c1,0,3.1,2.1,5.2,7.3c3.1,6.2,4.2,16.6,4.2,26
		c0,21.8-7.3,33.2-9.4,33.2H109.1l175.6,174.6c0,1-1,7.3-7.3,17.7C266,638.1,250.4,648.5,245.2,648.5L245.2,648.5z"/>
</g>
</svg>
