<?xml version="1.0" encoding="utf-8"?>
<!-- Generator: Adobe Illustrator 18.1.1, SVG Export Plug-In . SVG Version: 6.00 Build 0)  -->
<svg version="1.1" id="Layer_2" xmlns="http://www.w3.org/2000/svg" xmlns:xlink="http://www.w3.org/1999/xlink" x="0px" y="0px"
	 viewBox="0 0 257.9 147.1" enable-background="new 0 0 257.9 147.1" xml:space="preserve">
<g id="XMLID_1_">
	<g>
		<path id="vkrect" fill="#E7F0F9" d="M117.3,146.8C64.2,142.5,29.1,78.6,0.5,14.9c-0.8-2.7,0-8.1,6.5-8.1h39.3c7,0,9.5,9.1,10,10.4
			c9.5,24,21.5,41.9,31.5,52.6c3.2,3.5,8.3,4.1,11.1-0.8c1.4-2.6,3.7-17.3,2.5-38.3c0-10.8-5-19.7-15.9-19.7
			c-0.1-5.5,8.9-10.7,31-10.7l8.3,0c22.4,0,26.6,2.9,26.6,18c-1,10.1-0.7,38.3-1.1,41.4c1.9,15.9,7.6,14.6,16,5.8
			c4.2-4.4,23.5-34.3,29.1-49.8c0.8-1.7,2.3-8.4,7.7-8.4l41.7-1c16.1-0.3,14.7,7,8.7,19.3c-8,16.3-27.2,40.3-30.2,43.8
			c-14.4,16.8-4.9,21.6,0.2,26.4c11.9,11.3,25.5,24.9,31,34.8c5.2,9.3,3.3,15.5-9.2,16.4h-39.8c-16.3,0-33.3-34.7-43.4-33.6
			c-8.4,0.9-11.1,13.6-11,18.4l-0.2,5.2c-0.1,6.3-4.1,10-10.1,10L117.3,146.8z"/>
	</g>
	<g>
	</g>
</g>
</svg>
