<?xml version="1.0" encoding="utf-8"?>
<!-- Generator: Adobe Illustrator 18.1.1, SVG Export Plug-In . SVG Version: 6.00 Build 0)  -->
<svg version="1.1" id="Layer_2" xmlns="http://www.w3.org/2000/svg" xmlns:xlink="http://www.w3.org/1999/xlink" x="0px" y="0px"
	 viewBox="0 0 285.9 171.2" enable-background="new 0 0 285.9 171.2" xml:space="preserve">
<path fill="none" stroke="#FFFFFF" stroke-width="2.5" stroke-miterlimit="10" d="M65,78.7c-21.7,0-39.6-21.2-39.6-47.4V27
	c1.2-8.9,6.5-12.3,15.7-14.3c4.7-1.6,29.5-3.3,61,0C115,14.4,123,23.1,123,28v5c0,25.2-18.3,45.6-41.4,45.6H65z"/>
<path fill="none" stroke="#FFFFFF" stroke-width="2.5" stroke-miterlimit="10" d="M220.9,79c21.7,0,39.6-21.2,39.6-47.4v-4.3
	c-1.2-8.9-6.5-12.3-15.7-14.3c-4.7-1.6-29.5-3.3-61,0c-12.9,1.7-20.9,10.5-20.9,15.3v5c0,25.2,18.3,45.6,41.4,45.6H220.9z"/>
<path fill="none" stroke="#FFFFFF" stroke-width="2.5" stroke-miterlimit="10" d="M179.7,2.9c37.7-2.6,71.3-1.5,77.9-0.9
	c15,0,27.1,4.2,27.1,7.7l-0.1,11.5c0,2.6,0.3,3.3-1,4.8l0,0c-4.6,2-10.3,8.6-12.5,15.5l-7.3,19.9c-5.3,11.3-16.6,24.9-42.8,26.5
	c-2.5,0.2-6.1,0.3-8,0.3c-0.6,0-4.1,0.1-4.9,0l-6.5-0.1c-28.6-0.4-44.1-21.2-51.7-49.9l-0.1-0.4c-3.1-9.1-10.8-8.6-13.4,0
	c-8.4,28.3-23.2,49.6-51.8,50l-6.5,0.1c-0.7,0.1-4.3,0-4.9,0c-1.9-0.1-5.5-0.2-8-0.3c-26.2-1.7-37.5-16.4-42.8-27.8l-7.3-19.9
	c-2.2-6.8-7.9-13.5-12.5-15.5l0,0c-1.3-1.5-1-2.1-1-4.8L1.3,8.2c0-3.5,12.1-6.5,27.1-6.5c6.8,0,40.2-1.3,77.9,0.4l2.9,0.2
	c2.1,0.3,12.9,3.7,14.7,4c17.8,2.4,21.9,2.8,36.4-0.1c0.9-0.2,11.2-2.8,12.1-2.9L179.7,2.9z"/>
<path fill="none" stroke="#FFFFFF" stroke-width="2.5" stroke-miterlimit="10" d="M143.3,110.4c-27.1-17.8-41.4-7-80.2,25.2
	c-8.9,6.3-18.5,8.7-24.7,3.8c-2.1-1.6-3-4.2-3.2-6.9l-0.1-1.2c0.3-5.3,11.4-11.6,12.4-7.5c2.2,6.4,4.9,6.3,6.1,0.4l0.3-2.7
	c0.2-5.3-4.8-7.8-11.4-6c-7.8,1.9-15.6,9.2-18,13c-3.5,5.4-5.8,12.3,0,20c16.1,21.4,53.6,25.1,87.6,18.3
	c15.8-3.4,21.4-6.7,30.7-14.8c13.1,11.3,19.2,11.9,31.3,14.8c34,6.8,71.6,3.1,87.6-18.3c5.8-7.8,3.5-14.7,0-20
	c-2.4-3.8-10.2-11.1-18-13c-6.6-1.8-11.6,0.7-11.4,6l0.3,2.7c1.2,5.9,3.9,6,6.1-0.4c1-4.1,12.1,2.2,12.4,7.5l-0.1,1.2
	c-0.1,2.6-1.1,5.2-3.2,6.9c-6.2,5-15.8,2.6-24.7-3.8C184.7,103.4,170.3,92.6,143.3,110.4"/>
</svg>
