<?xml version="1.0" encoding="utf-8"?>
<!-- Generator: Adobe Illustrator 18.1.1, SVG Export Plug-In . SVG Version: 6.00 Build 0)  -->
<svg version="1.1" id="Layer_2" xmlns="http://www.w3.org/2000/svg" xmlns:xlink="http://www.w3.org/1999/xlink" x="0px" y="0px"
	 viewBox="0 0 174 153.9" enable-background="new 0 0 174 153.9" xml:space="preserve">
<path fill="none" stroke="#FFFFFF" stroke-width="3" stroke-miterlimit="10" d="M126.6,22.9l0-11.7c0-4.6-4.2-9.7-10.3-9.7l-58.7,0
	c-6.1,0-10.3,5.1-10.3,9.7v11.7"/>
<path fill="none" stroke="#FFFFFF" stroke-width="3" stroke-miterlimit="10" d="M64.5,79.9c0-1.8-1.5-3-3.5-3l-18.1,0
	c-2,0-3.5,1.2-3.5,3v28.5c0,1.8,1.5,3,3.5,3l18.1,0c2,0,3.5-1.2,3.5-3V79.9z"/>
<path fill="none" stroke="#FFFFFF" stroke-width="3" stroke-linejoin="round" stroke-miterlimit="10" d="M50.2,103.4
	c-1.5,0-2.7-1.3-2.7-2.7V86c0-1.5,1.2-2.6,2.7-2.6h3.5c1.5,0,2.7,1.2,2.7,2.6v14.7c0,1.5-1.2,2.7-2.7,2.7H50.2z"/>
<path fill="none" stroke="#FFFFFF" stroke-width="3" stroke-miterlimit="10" d="M109.4,79.9c0-1.8,1.5-3,3.5-3l18.1,0
	c2,0,3.5,1.2,3.5,3v28.5c0,1.8-1.5,3-3.5,3l-18.1,0c-2,0-3.5-1.2-3.5-3V79.9z"/>
<path fill="none" stroke="#FFFFFF" stroke-width="3" stroke-miterlimit="10" d="M134.5,97.4l13.4,0c5.6,0,9.7-4.5,9.7-10.1l0-55.8
	h2.5c6.2,0,12.4,6.2,12.4,12.7l0,95.5c0,6.5-6.2,12.7-12.4,12.7H13.9c-6.2,0-12.4-6.2-12.4-12.7l0-95.5c0-6.5,6.2-12.7,12.4-12.7
	h2.5l0,55.8c0,5.6,4.1,10.1,9.7,10.1l13.4,0"/>
<path fill="none" stroke="#FFFFFF" stroke-width="3" stroke-linejoin="round" stroke-miterlimit="10" d="M123.8,103.4
	c1.5,0,2.7-1.3,2.7-2.7V86c0-1.5-1.2-2.6-2.7-2.6h-3.5c-1.5,0-2.7,1.2-2.7,2.6v14.7c0,1.5,1.2,2.7,2.7,2.7H123.8z"/>
<line fill="none" stroke="#FFFFFF" stroke-width="3" stroke-miterlimit="10" x1="64.5" y1="97.4" x2="109.4" y2="97.4"/>
<line fill="none" stroke="#FFFFFF" stroke-width="3" stroke-miterlimit="10" x1="16.4" y1="31.5" x2="157.5" y2="31.5"/>
</svg>
