<?xml version="1.0" encoding="utf-8"?>
<!-- Generator: Adobe Illustrator 18.1.1, SVG Export Plug-In . SVG Version: 6.00 Build 0)  -->
<svg version="1.1" id="Layer_2" xmlns="http://www.w3.org/2000/svg" xmlns:xlink="http://www.w3.org/1999/xlink" x="0px" y="0px"
	 viewBox="0 0 178.7 183.2" enable-background="new 0 0 178.7 183.2" xml:space="preserve">
<path fill="none" stroke="#FFFFFF" stroke-width="3" stroke-miterlimit="10" d="M72.6,153.4c-2.1,0-4.3,3.4-4.3,5v11.7
	c0,1.7,2.1,5,4.3,5h5.3c2.2,2.2,4.2,6.5,9.9,6.5H92c5.7,0,7.7-4.3,9.9-6.5h5.3c2.1,0,4.3-3.4,4.3-5v-11.7c0-1.7-2.1-5-4.3-5H72.6z"
	/>
<path fill="none" stroke="#FFFFFF" stroke-width="3" stroke-miterlimit="10" d="M65.9,127.7c1,1,3.1,5.2,3.1,8.4v3.9
	c0,3,2.5,5.5,5.5,5.5h31.1c3,0,5.5-2.5,5.5-5.5v-3.9c0-3.2,2.1-7.4,3.1-8.4"/>
<path fill="none" stroke="#FFFFFF" stroke-width="3" stroke-miterlimit="10" d="M65.9,127.7C62.2,124.4,48,105.1,48.5,89v-5.7
	c0-8.3,10.4-36.9,39.6-36.9h3.8c29.2,0,39.6,28.7,39.6,36.9V89c0.5,16.1-13.7,35.3-17.3,38.7"/>
<line fill="none" stroke="#FFFFFF" stroke-width="3.5" stroke-linecap="round" stroke-miterlimit="10" x1="42.3" y1="132.8" x2="26.2" y2="148.9"/>
<line fill="none" stroke="#FFFFFF" stroke-width="3.4" stroke-linecap="round" stroke-miterlimit="10" x1="24.5" y1="88.2" x2="1.7" y2="88.2"/>
<line fill="none" stroke="#FFFFFF" stroke-width="3.5" stroke-linecap="round" stroke-miterlimit="10" x1="42.4" y1="41.6" x2="26.3" y2="25.5"/>
<line fill="none" stroke="#FFFFFF" stroke-width="3.5" stroke-linecap="round" stroke-miterlimit="10" x1="89.8" y1="1.8" x2="89.8" y2="24.6"/>
<line fill="none" stroke="#FFFFFF" stroke-width="3" stroke-linecap="round" stroke-miterlimit="10" x1="153.1" y1="25.3" x2="137" y2="41.5"/>
<line fill="none" stroke="#FFFFFF" stroke-width="3.5" stroke-linecap="round" stroke-miterlimit="10" x1="177" y1="88.1" x2="154.2" y2="88.1"/>
<line fill="none" stroke="#FFFFFF" stroke-width="3.5" stroke-linecap="round" stroke-miterlimit="10" x1="154.5" y1="148.9" x2="138.4" y2="132.7"/>
</svg>
