<?xml version="1.0" encoding="utf-8"?>
<!-- Generator: Adobe Illustrator 18.1.1, SVG Export Plug-In . SVG Version: 6.00 Build 0)  -->
<svg version="1.1" xmlns="http://www.w3.org/2000/svg" xmlns:xlink="http://www.w3.org/1999/xlink" x="0px" y="0px"
	 viewBox="0 0 151.6 184.6" enable-background="new 0 0 151.6 184.6" xml:space="preserve">
<g id="Layer_2">
	<path fill="none" stroke="#FFFFFF" stroke-width="3" stroke-linecap="round" stroke-linejoin="round" stroke-miterlimit="10" d="
		M69.3,31.6c-0.9,0.9,26.1,29,29.2,32.1c3.2,3.2,8.4,13,14.3,18.9c7,7,1.4,5.9,25.3,5.9c9.9,0,12,31.2,12,32.8
		c0.3,14.6-4.1,37.5-11.4,37.5c-10.5,0-17.4,0.1-17.4,0.2c-10.9,10.9-24.3,24.2-32.2,23.8H74.3c-0.8-0.8-11.2-3.5-15.1,0.4
		c-19.8,0-28-3.5-28-17.5c-11.1,0-14.6-7.4-14.6-18.8c-8,0-15.6-16.1-7.8-23.5c-12.9-12.9-13.7-46,40.5-46
		c0-13.2-9.2-26.5-12.3-31.7c-0.3-0.6-0.5-1.1-0.8-1.8c-0.7-1.4-1.4-4-1.6-4.7c-3.2-9.9-4.1-26.4,14.5-34.9c0.2-0.1,3.1-1.3,4.1-1.5
		l4-1c3.1-0.7,4.7,0,5.9,2c1.4,2.4,2.1,5.6,2.1,6.7L69.3,31.6z"/>
</g>
<g id="Layer_3">
	<path fill="none" stroke="#FFFFFF" stroke-width="2.4" stroke-linecap="round" stroke-linejoin="round" stroke-miterlimit="10" d="
		M134.9,147.1c5.8-5.8,3.6-42.3,0.3-45.6"/>
	<path fill="none" stroke="#FFFFFF" stroke-width="2.4" stroke-linecap="round" stroke-linejoin="round" stroke-miterlimit="10" d="
		M51.6,105.4c1.8,0,11.8,4,7.5,6.5l-20.6,9.3c-7.4,2.2-21.2-2.6-21.2-5.7"/>
	<path fill="none" stroke="#FFFFFF" stroke-width="2.4" stroke-linecap="round" stroke-linejoin="round" stroke-miterlimit="10" d="
		M17.2,130.6c0,4.2,3.7,7.7,8.4,7.7h21.9c7-3.4,11.1-5.1,19.5-8.8c3.8-1.8,1-4.3-4.3-6"/>
	<path fill="none" stroke="#FFFFFF" stroke-width="2.4" stroke-linecap="round" stroke-linejoin="round" stroke-miterlimit="10" d="
		M70.9,140.8c1.7,0.4,4.5,2.9,3,4.5L52.1,155c-16.7,2-25.5-2.3-25.5-5.2"/>
	<path fill="none" stroke="#FFFFFF" stroke-width="2.4" stroke-linecap="round" stroke-linejoin="round" stroke-miterlimit="10" d="
		M73.8,158.3c2.2,1.2,4.1,3.6,3.8,5L59,172.8c-8.1,0.8-16.4-1.7-16.9-5"/>
</g>
</svg>
