<?xml version="1.0" encoding="utf-8"?>
<!-- Generator: Adobe Illustrator 18.1.1, SVG Export Plug-In . SVG Version: 6.00 Build 0)  -->
<svg version="1.1" id="Layer_2" xmlns="http://www.w3.org/2000/svg" xmlns:xlink="http://www.w3.org/1999/xlink" x="0px" y="0px"
	 viewBox="0 0 316.3 163.5" enable-background="new 0 0 316.3 163.5" xml:space="preserve">
<path fill="none" stroke="#FFFFFF" stroke-width="2.5" stroke-miterlimit="10" d="M234.6,160.4c7.5,0,13.5-7.4,13.5-12.9L248,14
	c0-5.5-6.1-12.8-13.5-12.8L21,1.3c-9.9,0-14.2,8.5-14.2,12.6l0,5.3h15.3v123.2H6.8l0,5.3c0,4.1,4.3,12.6,14.2,12.6L234.6,160.4z"/>
<path fill="none" stroke="#FFFFFF" stroke-width="2.5" stroke-miterlimit="10" d="M0,32.3c7.1,0,8,0.9,8,5.8v85.5
	c0,4.9-0.9,5.8-8,5.8"/>
<line fill="none" stroke="#FFFFFF" stroke-width="3" stroke-miterlimit="10" x1="110.8" y1="36.6" x2="213" y2="36.6"/>
<line fill="none" stroke="#FFFFFF" stroke-width="3" stroke-miterlimit="10" x1="110" y1="59.1" x2="183.6" y2="59.1"/>
<line fill="none" stroke="#FFFFFF" stroke-width="3" stroke-miterlimit="10" x1="111.1" y1="103.9" x2="213.2" y2="103.9"/>
<line fill="none" stroke="#FFFFFF" stroke-width="3" stroke-miterlimit="10" x1="111.1" y1="125.8" x2="154.2" y2="125.8"/>
<path fill="none" stroke="#FFFFFF" stroke-width="3" stroke-miterlimit="10" d="M50.2,42.2c1.8-1.8,2.4-1.9,4.3,0l7.9,7.1
	c1.8,1.8,2.4,1.9,4.3,0l18.6-21.2c1.8-1.8,2.4-1.9,4.3,0l1.5,1.5c1.9,1.9,1.6,2.2,0,4.3L67,67c-1.6,1.9-2.5,1.9-4.3,0L47.9,48.7
	c-1.4-1.8-1.7-2.3,0-4.3L50.2,42.2z"/>
<path fill="none" stroke="#FFFFFF" stroke-width="3" stroke-miterlimit="10" d="M50.2,109.8c1.8-1.8,2.4-1.9,4.3,0l7.9,7.1
	c1.8,1.8,2.4,1.9,4.3,0l18.6-21.2c1.8-1.8,2.4-1.9,4.3,0l1.5,1.5c1.9,1.9,1.6,2.2,0,4.3L67,134.6c-1.6,1.9-2.5,1.9-4.3,0L48,116.3
	c-1.4-1.8-1.7-2.3,0-4.3L50.2,109.8z"/>
<path fill="none" stroke="#FFFFFF" stroke-width="2.5" stroke-miterlimit="10" d="M315,15.3c0-8.4-5.2-13.9-11.4-13.9h-11
	c-6.3,0-11.4,5.5-11.4,13.9l0,105H315L315,15.3z"/>
<polygon fill="none" stroke="#FFFFFF" stroke-width="2.5" stroke-linecap="round" stroke-miterlimit="10" points="299,160.7 
	314.1,128.3 282.1,128.3 "/>
</svg>
